<svg width="80" height="80" xmlns="http://www.w3.org/2000/svg">
  <!-- Style A: Gold-on-Dark -->

  <!-- Outer hexagon frame -->
  <polygon points="40,5 70,22.5 70,57.5 40,75 10,57.5 10,22.5"
           fill="none" stroke="#FFD700" stroke-width="2" opacity="0.4"/>

  <!-- Inner hexagon with dark fill -->
  <polygon points="40,15 60,27.5 60,52.5 40,65 20,52.5 20,27.5"
           fill="#2d3748" opacity="0.9"/>
  <polygon points="40,15 60,27.5 60,52.5 40,65 20,52.5 20,27.5"
           fill="none" stroke="#FFD700" stroke-width="2"/>

  <!-- Layered quality symbol (stacked hexagons) - GOLD -->
  <polygon points="40,25 50,30 50,40 40,45 30,40 30,30"
           fill="none" stroke="#FFD700" stroke-width="2"/>
  <polygon points="40,32 47,36 47,44 40,48 33,44 33,36"
           fill="none" stroke="#FFD700" stroke-width="1.8" opacity="0.7"/>
  <polygon points="40,38 44,40 44,46 40,48 36,46 36,40"
           fill="#FFD700" opacity="0.5"/>

  <!-- Checkmark overlay -->
  <path d="M 32 38 L 37 43 L 48 32"
        stroke="#FFD700" stroke-width="2.5" stroke-linecap="round"
        fill="none"/>
</svg>
